<svg width="28" height="22" viewBox="0 0 28 22" fill="none" xmlns="http://www.w3.org/2000/svg">
<path d="M26.2788 0.6875H1.88688C1.36797 0.6875 0.94873 1.10645 0.94873 1.625V20.375C0.94873 20.8936 1.36797 21.3125 1.88688 21.3125H26.2788C26.7977 21.3125 27.2169 20.8936 27.2169 20.375V1.625C27.2169 1.10645 26.7977 0.6875 26.2788 0.6875ZM25.1061 3.93359V19.2031H3.05957V3.93359L2.25041 3.30371L3.40258 1.82422L4.65735 2.7998H23.5112L24.766 1.82422L25.9182 3.30371L25.1061 3.93359ZM23.5112 2.79688L14.0828 10.1211L4.65442 2.79688L3.39965 1.82129L2.24748 3.30078L3.05663 3.93066L13.0714 11.7119C13.3594 11.9355 13.7137 12.0569 14.0784 12.0569C14.4431 12.0569 14.7975 11.9355 15.0855 11.7119L25.1061 3.93359L25.9152 3.30371L24.7631 1.82422L23.5112 2.79688Z" fill="white"/>
</svg>
