<svg width="24" height="24" viewBox="0 0 24 24" fill="none" xmlns="http://www.w3.org/2000/svg">
<path d="M22.7865 3.99316L19.6642 0.875977C19.2831 0.495117 18.773 0.28125 18.2336 0.28125C17.6941 0.28125 17.184 0.492188 16.8029 0.875977L13.4402 4.23047C13.0591 4.61133 12.8451 5.12402 12.8451 5.66309C12.8451 6.20508 13.0562 6.71191 13.4402 7.0957L16.067 9.72363C15.4686 11.1169 14.6088 12.3829 13.534 13.4531C12.4581 14.5342 11.2004 15.3867 9.80488 15.9902L7.17806 13.3623C6.79694 12.9814 6.28682 12.7676 5.74738 12.7676C5.48131 12.7666 5.21772 12.8187 4.97205 12.9208C4.72638 13.0229 4.50358 13.173 4.31671 13.3623L0.951096 16.7168C0.569972 17.0977 0.355957 17.6104 0.355957 18.1494C0.355957 18.6914 0.567041 19.1982 0.951096 19.582L4.07044 22.6992C4.72128 23.3496 5.61839 23.7217 6.53895 23.7217C6.72951 23.7217 6.91421 23.707 7.10184 23.6748C10.9834 23.0361 14.8357 20.9707 17.9463 17.8652C21.0539 14.7539 23.1178 10.9043 23.7628 7.02246C23.9475 5.9209 23.5781 4.78711 22.7865 3.99316ZM21.6842 6.67383C21.1125 10.1279 19.2538 13.5732 16.454 16.3711C13.6542 19.1689 10.2095 21.0264 6.75296 21.5977C6.31907 21.6709 5.87345 21.5244 5.55682 21.2109L2.49318 18.1494L5.74152 14.9004L9.25372 18.416L9.2801 18.4424L9.91335 18.208C11.8334 17.5026 13.577 16.3883 15.0233 14.9425C16.4696 13.4967 17.584 11.7539 18.2893 9.83496L18.5238 9.20215L14.9823 5.66602L18.2306 2.41699L21.2943 5.47852C21.6109 5.79492 21.7575 6.24023 21.6842 6.67383Z" fill="white"/>
</svg>
